<mxfile host="Electron" agent="Mozilla/5.0 (Macintosh; Intel Mac OS X 10_15_7) AppleWebKit/537.36 (KHTML, like Gecko) draw.io/26.0.16 Chrome/132.0.6834.196 Electron/34.2.0 Safari/537.36" version="26.0.16">
  <diagram name="Page-1" id="FIF8pdNOBhTK2F7PZS23">
    <mxGraphModel dx="1114" dy="817" grid="1" gridSize="10" guides="1" tooltips="1" connect="1" arrows="1" fold="1" page="1" pageScale="1" pageWidth="850" pageHeight="1100" math="0" shadow="0">
      <root>
        <mxCell id="0" />
        <mxCell id="1" parent="0" />
        <mxCell id="kZX0pBvgX_4P1X2zCGf1-1" value="" style="rounded=0;whiteSpace=wrap;html=1;dashed=1;fillColor=none;strokeColor=#8F8F8F;" vertex="1" parent="1">
          <mxGeometry x="42.69" y="200" width="120" height="470" as="geometry" />
        </mxCell>
        <mxCell id="kZX0pBvgX_4P1X2zCGf1-3" value="Sources" style="rounded=0;whiteSpace=wrap;html=1;fontSize=24;strokeColor=none;" vertex="1" parent="1">
          <mxGeometry x="57.69" y="180" width="90" height="30" as="geometry" />
        </mxCell>
        <mxCell id="kZX0pBvgX_4P1X2zCGf1-4" value="" style="rounded=0;whiteSpace=wrap;html=1;dashed=1;fillColor=none;strokeColor=#8F8F8F;" vertex="1" parent="1">
          <mxGeometry x="195" y="200" width="470" height="470" as="geometry" />
        </mxCell>
        <mxCell id="kZX0pBvgX_4P1X2zCGf1-5" value="Data Warehouse" style="rounded=0;whiteSpace=wrap;html=1;fontSize=24;strokeColor=none;" vertex="1" parent="1">
          <mxGeometry x="314.5" y="180" width="220" height="30" as="geometry" />
        </mxCell>
        <mxCell id="kZX0pBvgX_4P1X2zCGf1-6" value="" style="rounded=0;whiteSpace=wrap;html=1;dashed=1;fillColor=none;strokeColor=#8F8F8F;" vertex="1" parent="1">
          <mxGeometry x="687" y="200" width="120" height="470" as="geometry" />
        </mxCell>
        <mxCell id="kZX0pBvgX_4P1X2zCGf1-7" value="Consume" style="rounded=0;whiteSpace=wrap;html=1;fontSize=24;strokeColor=none;" vertex="1" parent="1">
          <mxGeometry x="702" y="180" width="90" height="30" as="geometry" />
        </mxCell>
        <mxCell id="kZX0pBvgX_4P1X2zCGf1-8" value="&lt;font style=&quot;font-size: 14px;&quot;&gt;Bronze Layer&lt;/font&gt;" style="rounded=0;whiteSpace=wrap;html=1;fillColor=#ffe6cc;strokeColor=#d79b00;" vertex="1" parent="1">
          <mxGeometry x="213" y="240" width="132" height="33.16" as="geometry" />
        </mxCell>
        <mxCell id="kZX0pBvgX_4P1X2zCGf1-9" value="" style="rounded=0;whiteSpace=wrap;html=1;fillColor=none;strokeColor=#d79b00;" vertex="1" parent="1">
          <mxGeometry x="213" y="280" width="132" height="380" as="geometry" />
        </mxCell>
        <mxCell id="kZX0pBvgX_4P1X2zCGf1-14" style="edgeStyle=orthogonalEdgeStyle;rounded=0;orthogonalLoop=1;jettySize=auto;html=1;exitX=0.5;exitY=1;exitDx=0;exitDy=0;entryX=0.496;entryY=0.667;entryDx=0;entryDy=0;entryPerimeter=0;" edge="1" parent="1">
          <mxGeometry relative="1" as="geometry">
            <mxPoint x="422.5" y="270.0000000000001" as="sourcePoint" />
            <mxPoint x="422.03999999999996" y="260.0100000000001" as="targetPoint" />
          </mxGeometry>
        </mxCell>
        <mxCell id="kZX0pBvgX_4P1X2zCGf1-15" value="&lt;font style=&quot;font-size: 14px;&quot;&gt;Bronze Layer&lt;/font&gt;" style="rounded=0;whiteSpace=wrap;html=1;fillColor=#f5f5f5;strokeColor=#666666;fontColor=#333333;" vertex="1" parent="1">
          <mxGeometry x="363" y="240" width="132" height="33.16" as="geometry" />
        </mxCell>
        <mxCell id="kZX0pBvgX_4P1X2zCGf1-16" value="" style="rounded=0;whiteSpace=wrap;html=1;fillColor=none;strokeColor=#666666;fontColor=#333333;" vertex="1" parent="1">
          <mxGeometry x="363" y="280" width="132" height="380" as="geometry" />
        </mxCell>
        <mxCell id="kZX0pBvgX_4P1X2zCGf1-17" value="&lt;font style=&quot;font-size: 14px;&quot;&gt;Gold Layer&lt;/font&gt;" style="rounded=0;whiteSpace=wrap;html=1;fillColor=#fff2cc;strokeColor=#d6b656;" vertex="1" parent="1">
          <mxGeometry x="515" y="240" width="132" height="33.16" as="geometry" />
        </mxCell>
        <mxCell id="kZX0pBvgX_4P1X2zCGf1-18" value="" style="rounded=0;whiteSpace=wrap;html=1;fillColor=none;strokeColor=#d6b656;" vertex="1" parent="1">
          <mxGeometry x="515" y="280" width="132" height="380" as="geometry" />
        </mxCell>
        <mxCell id="kZX0pBvgX_4P1X2zCGf1-19" value="" style="image;aspect=fixed;html=1;points=[];align=center;fontSize=12;image=img/lib/azure2/general/Folder_Blank.svg;" vertex="1" parent="1">
          <mxGeometry x="76.89999999999998" y="290" width="52.96" height="42.99" as="geometry" />
        </mxCell>
        <mxCell id="kZX0pBvgX_4P1X2zCGf1-20" value="" style="image;aspect=fixed;html=1;points=[];align=center;fontSize=12;image=img/lib/azure2/general/File.svg;" vertex="1" parent="1">
          <mxGeometry x="106.89999999999998" y="312.99" width="24.35" height="30" as="geometry" />
        </mxCell>
        <mxCell id="kZX0pBvgX_4P1X2zCGf1-21" value="" style="image;aspect=fixed;html=1;points=[];align=center;fontSize=12;image=img/lib/azure2/general/Folder_Blank.svg;" vertex="1" parent="1">
          <mxGeometry x="75.50999999999999" y="390" width="52.96" height="42.99" as="geometry" />
        </mxCell>
        <mxCell id="kZX0pBvgX_4P1X2zCGf1-22" value="" style="image;aspect=fixed;html=1;points=[];align=center;fontSize=12;image=img/lib/azure2/general/File.svg;" vertex="1" parent="1">
          <mxGeometry x="105.50999999999999" y="412.99" width="24.35" height="30" as="geometry" />
        </mxCell>
        <mxCell id="kZX0pBvgX_4P1X2zCGf1-23" value="CRM" style="text;html=1;align=center;verticalAlign=middle;whiteSpace=wrap;rounded=0;" vertex="1" parent="1">
          <mxGeometry x="71.99000000000001" y="342.99" width="60" height="30" as="geometry" />
        </mxCell>
        <mxCell id="kZX0pBvgX_4P1X2zCGf1-26" value="ERP" style="text;html=1;align=center;verticalAlign=middle;whiteSpace=wrap;rounded=0;" vertex="1" parent="1">
          <mxGeometry x="73.38" y="442.99" width="60" height="30" as="geometry" />
        </mxCell>
        <mxCell id="kZX0pBvgX_4P1X2zCGf1-27" value="" style="endArrow=none;html=1;rounded=0;fillColor=#f5f5f5;strokeColor=#CCCCCC;strokeWidth=1;" edge="1" parent="1">
          <mxGeometry width="50" height="50" relative="1" as="geometry">
            <mxPoint x="50.0588888888889" y="478.0000000000001" as="sourcePoint" />
            <mxPoint x="156.70999999999998" y="478" as="targetPoint" />
          </mxGeometry>
        </mxCell>
        <mxCell id="kZX0pBvgX_4P1X2zCGf1-28" value="&lt;font style=&quot;font-size: 9px;&quot;&gt;&lt;b style=&quot;&quot;&gt;Object Type&lt;/b&gt;: CSV Files&lt;/font&gt;&lt;div&gt;&lt;font style=&quot;font-size: 9px;&quot;&gt;&lt;b style=&quot;&quot;&gt;Interface&lt;/b&gt;: Files in Folder&lt;/font&gt;&lt;/div&gt;" style="text;html=1;align=left;verticalAlign=middle;whiteSpace=wrap;rounded=0;" vertex="1" parent="1">
          <mxGeometry x="44.079999999999984" y="490" width="150" height="30" as="geometry" />
        </mxCell>
        <mxCell id="kZX0pBvgX_4P1X2zCGf1-29" value="" style="html=1;verticalLabelPosition=bottom;align=center;labelBackgroundColor=#ffffff;verticalAlign=top;strokeWidth=2;strokeColor=#d79b00;shadow=0;dashed=0;shape=mxgraph.ios7.icons.data;fillColor=#ffe6cc;" vertex="1" parent="1">
          <mxGeometry x="256.75" y="302" width="44.5" height="50" as="geometry" />
        </mxCell>
        <mxCell id="kZX0pBvgX_4P1X2zCGf1-30" value="" style="html=1;verticalLabelPosition=bottom;align=center;labelBackgroundColor=#ffffff;verticalAlign=top;strokeWidth=2;strokeColor=#666666;shadow=0;dashed=0;shape=mxgraph.ios7.icons.data;fillColor=#f5f5f5;fontColor=#333333;" vertex="1" parent="1">
          <mxGeometry x="406.75" y="302" width="44.5" height="50" as="geometry" />
        </mxCell>
        <mxCell id="kZX0pBvgX_4P1X2zCGf1-31" value="" style="html=1;verticalLabelPosition=bottom;align=center;labelBackgroundColor=#ffffff;verticalAlign=top;strokeWidth=2;strokeColor=#d6b656;shadow=0;dashed=0;shape=mxgraph.ios7.icons.data;fillColor=#fff2cc;" vertex="1" parent="1">
          <mxGeometry x="558.75" y="302" width="44.5" height="50" as="geometry" />
        </mxCell>
        <mxCell id="kZX0pBvgX_4P1X2zCGf1-33" value="" style="shape=singleArrow;whiteSpace=wrap;html=1;fillColor=#b1ddf0;strokeColor=#10739e;" vertex="1" parent="1">
          <mxGeometry x="154.5" y="317" width="50" height="20" as="geometry" />
        </mxCell>
        <mxCell id="kZX0pBvgX_4P1X2zCGf1-41" value="" style="shape=singleArrow;whiteSpace=wrap;html=1;fillColor=#b1ddf0;strokeColor=#10739e;" vertex="1" parent="1">
          <mxGeometry x="335" y="317" width="50" height="20" as="geometry" />
        </mxCell>
        <mxCell id="kZX0pBvgX_4P1X2zCGf1-42" value="" style="shape=singleArrow;whiteSpace=wrap;html=1;fillColor=#b1ddf0;strokeColor=#10739e;" vertex="1" parent="1">
          <mxGeometry x="475" y="317" width="50" height="20" as="geometry" />
        </mxCell>
        <mxCell id="kZX0pBvgX_4P1X2zCGf1-43" value="" style="shape=singleArrow;whiteSpace=wrap;html=1;fillColor=#b1ddf0;strokeColor=#10739e;" vertex="1" parent="1">
          <mxGeometry x="637" y="317" width="50" height="20" as="geometry" />
        </mxCell>
        <mxCell id="kZX0pBvgX_4P1X2zCGf1-44" value="Raw Data" style="text;html=1;align=center;verticalAlign=middle;whiteSpace=wrap;rounded=0;fontSize=10;" vertex="1" parent="1">
          <mxGeometry x="249" y="362" width="60" height="30" as="geometry" />
        </mxCell>
        <mxCell id="kZX0pBvgX_4P1X2zCGf1-45" value="Cleaned Standard Data" style="text;html=1;align=center;verticalAlign=middle;whiteSpace=wrap;rounded=0;fontSize=10;" vertex="1" parent="1">
          <mxGeometry x="382.5" y="362" width="92.5" height="30" as="geometry" />
        </mxCell>
        <mxCell id="kZX0pBvgX_4P1X2zCGf1-46" value="Business-Ready Data" style="text;html=1;align=center;verticalAlign=middle;whiteSpace=wrap;rounded=0;fontSize=10;" vertex="1" parent="1">
          <mxGeometry x="534.75" y="362" width="92.5" height="30" as="geometry" />
        </mxCell>
        <mxCell id="kZX0pBvgX_4P1X2zCGf1-48" value="" style="endArrow=none;html=1;rounded=0;fillColor=#ffe6cc;strokeColor=#d79b00;strokeWidth=1;" edge="1" parent="1">
          <mxGeometry width="50" height="50" relative="1" as="geometry">
            <mxPoint x="225.67888888888888" y="401.0600000000001" as="sourcePoint" />
            <mxPoint x="332.33" y="401.06" as="targetPoint" />
          </mxGeometry>
        </mxCell>
        <mxCell id="kZX0pBvgX_4P1X2zCGf1-49" value="" style="endArrow=none;html=1;rounded=0;fillColor=#f5f5f5;strokeColor=#666666;strokeWidth=1;" edge="1" parent="1">
          <mxGeometry width="50" height="50" relative="1" as="geometry">
            <mxPoint x="375.6788888888889" y="401.0600000000001" as="sourcePoint" />
            <mxPoint x="482.3299999999999" y="401.06" as="targetPoint" />
          </mxGeometry>
        </mxCell>
        <mxCell id="kZX0pBvgX_4P1X2zCGf1-50" value="" style="endArrow=none;html=1;rounded=0;fillColor=#fff2cc;strokeColor=#d6b656;strokeWidth=1;" edge="1" parent="1">
          <mxGeometry width="50" height="50" relative="1" as="geometry">
            <mxPoint x="526.1788888888889" y="400.0000000000001" as="sourcePoint" />
            <mxPoint x="632.8299999999999" y="400" as="targetPoint" />
          </mxGeometry>
        </mxCell>
        <mxCell id="kZX0pBvgX_4P1X2zCGf1-51" value="&lt;div style=&quot;&quot;&gt;&lt;font style=&quot;font-size: 9px;&quot;&gt;&lt;b style=&quot;background-color: transparent; color: light-dark(rgb(0, 0, 0), rgb(255, 255, 255));&quot;&gt;Object Type&lt;/b&gt;&lt;span style=&quot;background-color: transparent; color: light-dark(rgb(0, 0, 0), rgb(255, 255, 255));&quot;&gt;: Tables&lt;/span&gt;&lt;/font&gt;&lt;/div&gt;&lt;div style=&quot;&quot;&gt;&lt;font style=&quot;font-size: 9px;&quot;&gt;&lt;br&gt;&lt;/font&gt;&lt;/div&gt;&lt;div&gt;&lt;div style=&quot;&quot;&gt;&lt;font style=&quot;font-size: 9px;&quot;&gt;&lt;b&gt;Load&lt;/b&gt;:&amp;nbsp;&lt;/font&gt;&lt;/div&gt;&lt;/div&gt;&lt;div style=&quot;&quot;&gt;&lt;ul&gt;&lt;li&gt;&lt;font style=&quot;font-size: 9px;&quot;&gt;Batch Processing&lt;/font&gt;&lt;/li&gt;&lt;li&gt;&lt;font style=&quot;font-size: 9px;&quot;&gt;Full Load&lt;/font&gt;&lt;/li&gt;&lt;li&gt;&lt;font style=&quot;font-size: 9px;&quot;&gt;Truncate &amp;amp; Insert&lt;/font&gt;&lt;/li&gt;&lt;/ul&gt;&lt;div&gt;&lt;font style=&quot;font-size: 9px;&quot;&gt;No &lt;b&gt;Transformations&lt;/b&gt;&lt;/font&gt;&lt;/div&gt;&lt;div&gt;&lt;font style=&quot;font-size: 9px;&quot;&gt;Data Model: None (as-is)&lt;/font&gt;&lt;/div&gt;&lt;/div&gt;" style="text;html=1;align=left;verticalAlign=middle;whiteSpace=wrap;rounded=0;" vertex="1" parent="1">
          <mxGeometry x="216.25" y="405" width="125.5" height="140" as="geometry" />
        </mxCell>
        <mxCell id="kZX0pBvgX_4P1X2zCGf1-57" value="&lt;div style=&quot;&quot;&gt;&lt;font style=&quot;font-size: 9px;&quot;&gt;&lt;b style=&quot;background-color: transparent; color: light-dark(rgb(0, 0, 0), rgb(255, 255, 255));&quot;&gt;Object Type&lt;/b&gt;&lt;span style=&quot;background-color: transparent; color: light-dark(rgb(0, 0, 0), rgb(255, 255, 255));&quot;&gt;: Views&lt;/span&gt;&lt;/font&gt;&lt;/div&gt;&lt;div style=&quot;&quot;&gt;&lt;font style=&quot;font-size: 9px;&quot;&gt;&lt;br&gt;&lt;/font&gt;&lt;/div&gt;&lt;div&gt;&lt;div style=&quot;&quot;&gt;&lt;font style=&quot;font-size: 9px;&quot;&gt;No&lt;b&gt; Load&lt;/b&gt;&lt;/font&gt;&lt;/div&gt;&lt;/div&gt;&lt;div style=&quot;&quot;&gt;&lt;font style=&quot;font-size: 9px;&quot;&gt;&lt;b&gt;&lt;br&gt;&lt;/b&gt;&lt;/font&gt;&lt;/div&gt;&lt;div style=&quot;&quot;&gt;&lt;font size=&quot;1&quot;&gt;&lt;b&gt;Transformations:&lt;/b&gt;&lt;/font&gt;&lt;/div&gt;&lt;div style=&quot;&quot;&gt;&lt;ul&gt;&lt;li&gt;&lt;font size=&quot;1&quot;&gt;Data Integrations&lt;/font&gt;&lt;/li&gt;&lt;li&gt;&lt;font size=&quot;1&quot;&gt;Aggregations&lt;/font&gt;&lt;/li&gt;&lt;li&gt;&lt;font size=&quot;1&quot;&gt;Business Logics&lt;/font&gt;&lt;/li&gt;&lt;/ul&gt;&lt;/div&gt;&lt;div style=&quot;&quot;&gt;&lt;font size=&quot;1&quot;&gt;&lt;b&gt;Data Model:&lt;/b&gt;&lt;/font&gt;&lt;/div&gt;&lt;div style=&quot;&quot;&gt;&lt;ul&gt;&lt;li&gt;&lt;font size=&quot;1&quot;&gt;Star Schema&lt;/font&gt;&lt;/li&gt;&lt;li&gt;&lt;font size=&quot;1&quot;&gt;Flat Table&lt;/font&gt;&lt;/li&gt;&lt;li&gt;&lt;font size=&quot;1&quot;&gt;Aggregated Table&lt;/font&gt;&lt;/li&gt;&lt;/ul&gt;&lt;/div&gt;" style="text;html=1;align=left;verticalAlign=middle;whiteSpace=wrap;rounded=0;" vertex="1" parent="1">
          <mxGeometry x="518.25" y="405" width="125.5" height="212.99" as="geometry" />
        </mxCell>
        <mxCell id="kZX0pBvgX_4P1X2zCGf1-58" value="&lt;div style=&quot;&quot;&gt;&lt;font style=&quot;font-size: 9px;&quot;&gt;&lt;b style=&quot;background-color: transparent; color: light-dark(rgb(0, 0, 0), rgb(255, 255, 255));&quot;&gt;Object Type&lt;/b&gt;&lt;span style=&quot;background-color: transparent; color: light-dark(rgb(0, 0, 0), rgb(255, 255, 255));&quot;&gt;: Views&lt;/span&gt;&lt;/font&gt;&lt;/div&gt;&lt;div style=&quot;&quot;&gt;&lt;font style=&quot;font-size: 9px;&quot;&gt;&lt;br&gt;&lt;/font&gt;&lt;/div&gt;&lt;div&gt;&lt;div style=&quot;&quot;&gt;&lt;font style=&quot;font-size: 9px;&quot;&gt;&lt;b&gt;Load:&lt;/b&gt;&lt;/font&gt;&lt;/div&gt;&lt;/div&gt;&lt;div style=&quot;&quot;&gt;&lt;ul&gt;&lt;li&gt;&lt;font style=&quot;font-size: 9px;&quot;&gt;Batch Processing&lt;/font&gt;&lt;/li&gt;&lt;li&gt;&lt;font style=&quot;font-size: 9px;&quot;&gt;Full Load&lt;/font&gt;&lt;/li&gt;&lt;li&gt;&lt;font style=&quot;font-size: 9px;&quot;&gt;Truncate &amp;amp; Insert&lt;/font&gt;&lt;/li&gt;&lt;/ul&gt;&lt;div&gt;&lt;font style=&quot;font-size: 9px;&quot;&gt;&lt;b&gt;Transformations:&lt;/b&gt;&lt;/font&gt;&lt;/div&gt;&lt;div&gt;&lt;ul&gt;&lt;li&gt;&lt;font style=&quot;font-size: 9px;&quot;&gt;Data Cleansing&lt;/font&gt;&lt;/li&gt;&lt;li&gt;&lt;font style=&quot;font-size: 9px;&quot;&gt;Data Standardization&lt;/font&gt;&lt;/li&gt;&lt;li&gt;&lt;font style=&quot;font-size: 9px;&quot;&gt;Data Normalization&lt;/font&gt;&lt;/li&gt;&lt;li&gt;&lt;font style=&quot;font-size: 9px;&quot;&gt;Dervied Columns&lt;/font&gt;&lt;/li&gt;&lt;li&gt;&lt;font style=&quot;font-size: 9px;&quot;&gt;Data Enrichment&lt;/font&gt;&lt;/li&gt;&lt;/ul&gt;&lt;/div&gt;&lt;/div&gt;" style="text;html=1;align=left;verticalAlign=middle;whiteSpace=wrap;rounded=0;" vertex="1" parent="1">
          <mxGeometry x="363" y="380" width="130" height="280" as="geometry" />
        </mxCell>
        <mxCell id="kZX0pBvgX_4P1X2zCGf1-59" value="" style="image;aspect=fixed;html=1;points=[];align=center;fontSize=12;image=img/lib/azure2/analytics/Power_BI_Embedded.svg;" vertex="1" parent="1">
          <mxGeometry x="710.5300000000001" y="280" width="34.88" height="46.5" as="geometry" />
        </mxCell>
        <mxCell id="kZX0pBvgX_4P1X2zCGf1-64" value="" style="shadow=0;dashed=0;html=1;strokeColor=none;fillColor=#4495D1;labelPosition=center;verticalLabelPosition=bottom;verticalAlign=top;align=center;outlineConnect=0;shape=mxgraph.veeam.magnifying_glass;pointerEvents=1;" vertex="1" parent="1">
          <mxGeometry x="729.2000000000002" y="399.91" width="35.6" height="37.2" as="geometry" />
        </mxCell>
        <mxCell id="kZX0pBvgX_4P1X2zCGf1-67" value="BI &amp;amp; Reporting" style="text;html=1;align=center;verticalAlign=middle;whiteSpace=wrap;rounded=0;fontSize=10;" vertex="1" parent="1">
          <mxGeometry x="702" y="332" width="92.5" height="30" as="geometry" />
        </mxCell>
        <mxCell id="kZX0pBvgX_4P1X2zCGf1-68" value="Ad-HOC&lt;div&gt;SQL Que&lt;span style=&quot;color: rgba(0, 0, 0, 0); font-family: monospace; font-size: 0px; text-align: start; text-wrap-mode: nowrap; background-color: transparent;&quot;&gt;%3CmxGraphModel%3E%3Croot%3E%3CmxCell%20id%3D%220%22%2F%3E%3CmxCell%20id%3D%221%22%20parent%3D%220%22%2F%3E%3CmxCell%20id%3D%222%22%20value%3D%22BI%20%26amp%3Bamp%3B%20Reporting%22%20style%3D%22text%3Bhtml%3D1%3Balign%3Dcenter%3BverticalAlign%3Dmiddle%3BwhiteSpace%3Dwrap%3Brounded%3D0%3BfontSize%3D10%3B%22%20vertex%3D%221%22%20parent%3D%221%22%3E%3CmxGeometry%20x%3D%22717%22%20y%3D%22332%22%20width%3D%2292.5%22%20height%3D%2230%22%20as%3D%22geometry%22%2F%3E%3C%2FmxCell%3E%3C%2Froot%3E%3C%2FmxGraphModel%3E&lt;/span&gt;&lt;span style=&quot;background-color: transparent; color: light-dark(rgb(0, 0, 0), rgb(255, 255, 255));&quot;&gt;ries&lt;/span&gt;&lt;/div&gt;" style="text;html=1;align=center;verticalAlign=middle;whiteSpace=wrap;rounded=0;fontSize=10;" vertex="1" parent="1">
          <mxGeometry x="702" y="442.99" width="92.5" height="30" as="geometry" />
        </mxCell>
        <mxCell id="kZX0pBvgX_4P1X2zCGf1-69" value="Machine Learning" style="text;html=1;align=center;verticalAlign=middle;whiteSpace=wrap;rounded=0;fontSize=10;" vertex="1" parent="1">
          <mxGeometry x="700.75" y="570" width="92.5" height="30" as="geometry" />
        </mxCell>
        <mxCell id="kZX0pBvgX_4P1X2zCGf1-71" value="" style="sketch=0;points=[[0,0,0],[0.25,0,0],[0.5,0,0],[0.75,0,0],[1,0,0],[0,1,0],[0.25,1,0],[0.5,1,0],[0.75,1,0],[1,1,0],[0,0.25,0],[0,0.5,0],[0,0.75,0],[1,0.25,0],[1,0.5,0],[1,0.75,0]];outlineConnect=0;fontColor=#232F3E;fillColor=#01A88D;strokeColor=#ffffff;dashed=0;verticalLabelPosition=bottom;verticalAlign=top;align=center;html=1;fontSize=12;fontStyle=0;aspect=fixed;shape=mxgraph.aws4.resourceIcon;resIcon=mxgraph.aws4.neuron_ml_sdk;" vertex="1" parent="1">
          <mxGeometry x="723" y="530" width="48" height="48" as="geometry" />
        </mxCell>
        <mxCell id="kZX0pBvgX_4P1X2zCGf1-72" value="" style="shape=image;verticalLabelPosition=bottom;labelBackgroundColor=default;verticalAlign=top;aspect=fixed;imageAspect=0;image=https://logos-world.net/wp-content/uploads/2021/10/Tableau-Symbol.png;" vertex="1" parent="1">
          <mxGeometry x="740" y="290" width="65.79" height="37.01" as="geometry" />
        </mxCell>
        <mxCell id="kZX0pBvgX_4P1X2zCGf1-74" value="" style="shape=image;verticalLabelPosition=bottom;labelBackgroundColor=default;verticalAlign=top;aspect=fixed;imageAspect=0;image=https://cdn-icons-png.flaticon.com/512/5968/5968364.png;" vertex="1" parent="1">
          <mxGeometry x="195" y="100" width="100" height="100" as="geometry" />
        </mxCell>
      </root>
    </mxGraphModel>
  </diagram>
</mxfile>
